<?xml version="1.0" encoding="UTF-8"?>
<svg version="1.1" xmlns="http://www.w3.org/2000/svg" width="741" height="235">
<path d="M0 0 C1.28267509 0.5694207 1.28267509 0.5694207 2.59126282 1.15034485 C5.39236654 2.3950539 8.19028759 3.64675505 10.98828125 4.8984375 C12.93661418 5.76558303 14.88518428 6.63219588 16.83398438 7.49829102 C20.78005886 9.25248926 24.72510997 11.00895856 28.66943359 12.76708984 C35.84161324 15.96194083 43.02629131 19.12821633 50.21243286 22.29150391 C61.92252065 27.44708434 73.61671072 32.6373664 85.30224609 37.84838867 C94.45543707 41.9199048 103.65141389 45.88870561 112.85125732 49.85317993 C122.76447127 54.12920866 132.58783482 58.55938286 142.30078125 63.2734375 C140.58712423 66.70075154 136.57604222 67.53080721 133.18359375 68.984375 C132.33900604 69.35261383 131.49441833 69.72085266 130.62423706 70.10025024 C127.89405001 71.28914473 125.16009591 72.4690712 122.42578125 73.6484375 C119.80098735 74.78708461 117.17702034 75.92762017 114.55316162 77.06842041 C112.75551621 77.84989688 110.95753877 78.63061002 109.15924072 79.4105835 C97.17085383 84.61753406 85.23760991 89.94963007 73.30078125 95.2734375 C73.29713562 96.03463394 73.29348999 96.79583038 73.28973389 97.58009338 C73.25177439 104.77439067 73.19483256 111.96817465 73.11687851 119.16214085 C73.07746799 122.86014573 73.04524847 126.55791481 73.02978516 130.25610352 C73.01457554 133.82905255 72.98005566 137.40135302 72.93247223 140.97401237 C72.91770239 142.33301067 72.90974276 143.69210159 72.9088974 145.05117989 C72.89813383 153.68328667 72.5702956 159.2573414 66.87109375 165.953125 C49.03984292 180.70005136 27.1136362 189.74438482 5.52441406 197.47607422 C3.54566841 198.18562443 1.57493743 198.9174363 -0.39453125 199.65234375 C-1.42320312 200.02230469 -2.451875 200.39226562 -3.51171875 200.7734375 C-4.34316406 201.0725 -5.17460937 201.3715625 -6.03125 201.6796875 C-14.34893028 203.53076715 -20.61942298 201.27228837 -28.38671875 198.3359375 C-29.48234131 197.92988281 -30.57796387 197.52382812 -31.70678711 197.10546875 C-87.81104208 176.06789495 -87.81104208 176.06789495 -96.69921875 158.2734375 C-97.56753273 153.42883479 -97.53954912 148.61688725 -97.50390625 143.7109375 C-97.51517265 142.30987273 -97.52906037 140.90882682 -97.54544067 139.5078125 C-97.58130615 135.84487895 -97.5818746 132.18278293 -97.57476807 128.51971436 C-97.57385161 124.77210745 -97.60676379 121.02480854 -97.63671875 117.27734375 C-97.69041875 109.94252315 -97.70365119 102.60849555 -97.69921875 95.2734375 C-105.61921875 91.6434375 -113.53921875 88.0134375 -121.69921875 84.2734375 C-122.02921875 97.1434375 -122.35921875 110.0134375 -122.69921875 123.2734375 C-120.71921875 123.2734375 -118.73921875 123.2734375 -116.69921875 123.2734375 C-115.91501619 132.85260204 -115.13255242 142.43190656 -114.35231018 152.0113945 C-113.98996106 156.45948969 -113.62701243 160.90753428 -113.26269531 165.35546875 C-112.91115479 169.64768486 -112.56118698 173.94002656 -112.21231079 178.23246002 C-112.07890873 179.87035954 -111.94493933 181.50821296 -111.81039429 183.14601898 C-111.62209562 185.43934904 -111.43581174 187.73283448 -111.25 190.02636719 C-111.14341064 191.33208679 -111.03682129 192.6378064 -110.92700195 193.98309326 C-110.7590903 196.40858875 -110.69921875 198.84213688 -110.69921875 201.2734375 C-122.90921875 201.2734375 -135.11921875 201.2734375 -147.69921875 201.2734375 C-147.08472128 193.62036408 -146.46957054 185.96738391 -145.84875488 178.31482697 C-145.55967145 174.74931833 -145.2716305 171.18373327 -144.98632812 167.61791992 C-142.56521105 137.37659144 -142.56521105 137.37659144 -140.69921875 123.2734375 C-138.71921875 123.2734375 -136.73921875 123.2734375 -134.69921875 123.2734375 C-135.02921875 108.4234375 -135.35921875 93.5734375 -135.69921875 78.2734375 C-151.04421875 71.3434375 -151.04421875 71.3434375 -166.69921875 64.2734375 C-163.73759239 61.31181114 -161.84476174 60.25186869 -158.078125 58.609375 C-156.42780273 57.88621094 -156.42780273 57.88621094 -154.74414062 57.1484375 C-153.59494141 56.6534375 -152.44574219 56.1584375 -151.26171875 55.6484375 C-150.11638672 55.14570312 -148.97105469 54.64296875 -147.79101562 54.125 C-138.51978186 50.08883972 -138.51978186 50.08883972 -134.69921875 49.2734375 C-134.61671875 48.5515625 -134.53421875 47.8296875 -134.44921875 47.0859375 C-133.53671458 43.66404685 -132.11749946 41.83397002 -129.69921875 39.2734375 C-125.35842944 37.82650773 -120.81252289 37.68739329 -116.3996582 38.91113281 C-113.02053786 39.36449278 -111.43578373 38.63435332 -108.359375 37.203125 C-107.31217285 36.72560791 -106.2649707 36.24809082 -105.18603516 35.75610352 C-104.05601074 35.22557373 -102.92598633 34.69504395 -101.76171875 34.1484375 C-99.94201269 33.31599779 -98.12228232 32.48360799 -96.3013916 31.65376282 C-95.0320442 31.07482472 -93.76341863 30.49430161 -92.4954834 29.91227722 C-86.26804323 27.057313 -79.98434702 24.33997376 -73.68966675 21.63729858 C-61.64479178 16.46304871 -49.66184748 11.15924285 -37.71533203 5.76196289 C-35.50254523 4.76362012 -33.28758238 3.77008435 -31.0703125 2.78173828 C-28.67919025 1.7118981 -26.29898465 0.62673142 -23.921875 -0.47314453 C-22.67081957 -1.03863195 -21.41952375 -1.60358786 -20.16796875 -2.16796875 C-19.04841797 -2.68174072 -17.92886719 -3.1955127 -16.77539062 -3.72485352 C-10.6349383 -5.72439922 -5.59343682 -2.51529937 0 0 Z M-79.69921875 102.2734375 C-79.95338644 109.26523919 -80.12813284 116.25584597 -80.24853516 123.2512207 C-80.29873585 125.62895211 -80.36691491 128.00637615 -80.45361328 130.38305664 C-80.57535711 133.8069229 -80.63171259 137.22670365 -80.67578125 140.65234375 C-80.7273941 141.70990372 -80.77900696 142.76746368 -80.83218384 143.85707092 C-80.8355958 148.37666452 -80.81159765 151.13793588 -77.55722046 154.45996094 C-75.00694805 156.2686706 -72.4559965 157.80269265 -69.69921875 159.2734375 C-68.26850372 160.12327251 -66.83861276 160.97449918 -65.41015625 161.828125 C-63.97099831 162.61295505 -62.52542056 163.38610746 -61.07421875 164.1484375 C-59.8840918 164.77407593 -59.8840918 164.77407593 -58.66992188 165.41235352 C-40.70575103 174.56531258 -19.23207445 184.94882942 0.80078125 178.6484375 C1.6837085 178.37483398 2.56663574 178.10123047 3.47631836 177.81933594 C14.83685554 174.23450562 25.5398515 169.82083303 36.11328125 164.3359375 C36.87777588 163.94116211 37.64227051 163.54638672 38.42993164 163.13964844 C40.75348545 161.90262335 43.02231141 160.59161898 45.30078125 159.2734375 C46.15974503 158.81468231 47.0187088 158.35592712 47.90370178 157.88327026 C53.16422317 154.81878274 53.16422317 154.81878274 56.176651 149.75602722 C56.45788866 146.74688853 56.42776691 143.88955085 56.27734375 140.87109375 C56.26319427 139.79339218 56.2490448 138.71569061 56.23446655 137.60533142 C56.17869583 134.17931548 56.05330084 130.75995887 55.92578125 127.3359375 C55.87559764 125.00725625 55.82997429 122.67847197 55.7890625 120.34960938 C55.67909526 114.65529855 55.51200869 108.9648436 55.30078125 103.2734375 C51.58989741 103.96754591 48.47629621 104.94290337 45.03125 106.50390625 C43.99242676 106.97078857 42.95360352 107.4376709 41.88330078 107.91870117 C40.76294434 108.42763916 39.64258789 108.93657715 38.48828125 109.4609375 C36.69864847 110.26430739 34.90900239 111.06764837 33.11883545 111.86982727 C31.85398159 112.43673249 30.58937891 113.00419842 29.32501221 113.57218933 C22.24839354 116.75080964 15.15791067 119.89759056 8.05703735 123.02163696 C6.64206469 123.64525258 5.22797154 124.27086779 3.81478882 124.89852905 C1.82518388 125.78212133 -0.1671178 126.65934163 -2.16015625 127.53515625 C-3.30274902 128.04006592 -4.4453418 128.54497559 -5.62255859 129.06518555 C-12.35640679 131.70967172 -12.35640679 131.70967172 -16.57299805 130.33984375 C-17.62914307 129.84355469 -18.68528809 129.34726563 -19.7734375 128.8359375 C-20.36283615 128.5641568 -20.9522348 128.2923761 -21.55949402 128.01235962 C-22.8380519 127.42100078 -24.11377221 126.82347645 -25.38690186 126.22052002 C-28.10669769 124.93246655 -30.83977039 123.67382606 -33.57226562 122.41299438 C-35.01732329 121.74575232 -36.46164694 121.07691857 -37.90527344 120.40658569 C-45.65756431 116.81069348 -53.46775111 113.34869003 -61.28872681 109.90527344 C-63.55784423 108.90565103 -65.82527964 107.90228777 -68.0925293 106.8984375 C-69.47956693 106.28625887 -70.86668818 105.67426965 -72.25390625 105.0625 C-72.89410202 104.77879547 -73.53429779 104.49509094 -74.19389343 104.20278931 C-76.84855888 102.84593607 -76.84855888 102.84593607 -79.69921875 102.2734375 Z " fill="#FEFEFE" transform="translate(181.69921875,12.7265625)"/>
<path d="M0 0 C1.18299683 0.00966797 1.18299683 0.00966797 2.38989258 0.01953125 C10.07928222 0.26014622 15.51568205 2.14123508 21.20703125 7.4375 C25.16575101 11.69453469 28.125 15.50256985 28.125 21.5 C25.04184615 21.58733513 21.95901173 21.64050127 18.875 21.6875 C18.00230469 21.71263672 17.12960937 21.73777344 16.23046875 21.76367188 C11.41532213 21.81880714 8.84537883 21.79372989 5.125 18.5 C2.67565593 18.06561191 2.67565593 18.06561191 0.125 18.1875 C-0.720625 18.19136719 -1.56625 18.19523437 -2.4375 18.19921875 C-5.04161047 18.52055931 -6.66310294 19.10554316 -8.875 20.5 C-12.63726884 25.74030303 -12.5482994 31.30195618 -11.875 37.5 C-10.65552428 41.09424423 -9.59359909 42.8467281 -6.8125 45.375 C-2.46106573 47.04150674 1.53197793 47.30708056 6.125 46.5 C9.24386578 44.80904867 11.51518854 42.71962291 13.125 39.5 C7.845 39.5 2.565 39.5 -2.875 39.5 C-2.875 35.54 -2.875 31.58 -2.875 27.5 C7.685 27.5 18.245 27.5 29.125 27.5 C30.12468035 46.63673817 30.12468035 46.63673817 24.25390625 53.515625 C16.10647932 61.10992386 8.32852963 63.97282059 -2.8125 63.75 C-10.34623323 63.13500137 -17.41584362 60.89241852 -22.875 55.5 C-30.2731001 46.41041743 -31.86371023 37.02168316 -31.10449219 25.49072266 C-30.10737632 16.84127293 -25.91049469 10.67468583 -19.44921875 5.12109375 C-13.22750151 1.20301689 -7.29456209 -0.06252705 0 0 Z " fill="#FEFEFE" transform="translate(306.875,110.5)"/>
<path d="M0 0 C8.9601709 4.97402137 14.46351468 11.57432373 17.55078125 21.38671875 C19.40724216 31.23158721 17.96502045 41.32622296 12.375 49.6875 C7.32948356 55.88771174 -0.2308523 60.06352672 -8.0625 61.4375 C-16.94462038 62.32989514 -24.86194682 60.93702045 -32.35546875 55.89453125 C-38.94211086 50.49422618 -43.51246844 43.89221761 -45.0625 35.4375 C-45.94370171 26.00186319 -44.77443138 17.79187889 -39.296875 9.890625 C-30.06436505 -1.2320051 -13.69425772 -5.6317334 0 0 Z M-25.0625 20.4375 C-27.67229974 24.70808139 -27.72902774 29.57184748 -27.0625 34.4375 C-25.71063141 38.43165721 -23.75969724 40.95720857 -20.25 43.375 C-15.37714253 44.99928582 -11.769522 44.97303632 -6.875 43.4375 C-3.05063923 40.71795457 -1.46781845 37.87576562 -0.0625 33.4375 C0.82004663 28.13230397 -0.09673864 23.93727586 -3.0625 19.4375 C-5.38770913 16.67631415 -7.05039391 15.60283641 -10.62109375 15.01953125 C-17.23894966 14.68729154 -20.68825557 15.39029489 -25.0625 20.4375 Z " fill="#FEFEFE" transform="translate(386.0625,112.5625)"/>
<path d="M0 0 C5.94 0 11.88 0 18 0 C18 7.59 18 15.18 18 23 C24.27 23 30.54 23 37 23 C37 15.41 37 7.82 37 0 C42.94 0 48.88 0 55 0 C55 20.13 55 40.26 55 61 C49.06 61 43.12 61 37 61 C37 53.08 37 45.16 37 37 C30.73 37 24.46 37 18 37 C18 44.92 18 52.84 18 61 C12.06 61 6.12 61 0 61 C0 40.87 0 20.74 0 0 Z " fill="#FFFFFF" transform="translate(575,112)"/>
<path d="M0 0 C6.97878023 4.25946242 11.78306426 10.26290245 14.3125 18 C14.3125 19.32 14.3125 20.64 14.3125 22 C-1.98799932 22.9314571 -1.98799932 22.9314571 -6.125 20.6640625 C-7.17432858 19.58950967 -8.19667049 18.48760688 -9.18359375 17.35546875 C-11.20861247 15.53032201 -12.61660256 15.43962362 -15.3125 15.3125 C-18.92019016 15.55260225 -19.69182719 16.00342569 -22.6875 18.375 C-25.68976851 22.31547741 -25.84706851 24.37979817 -25.875 29.3125 C-25.89626953 31.00826172 -25.89626953 31.00826172 -25.91796875 32.73828125 C-25.68974415 35.96823958 -25.17452183 38.13954828 -23.6875 41 C-19.80374352 43.33025389 -16.13456373 43.46811197 -11.6875 43 C-7.44721381 40.7412063 -7.44721381 40.7412063 -4.6875 37 C1.5825 37 7.8525 37 14.3125 37 C13.18454867 44.89565928 11.25347227 49.63837211 5.16015625 54.8359375 C-2.96471571 60.5302922 -10.87995887 61.96849469 -20.6875 61 C-29.07186619 59.13804634 -36.30144294 55.26610618 -41.03125 47.91015625 C-45.82344915 38.71940289 -46.28440775 27.14760518 -44.0390625 17.09765625 C-43.11247202 14.84453666 -42.08246974 12.99517927 -40.6875 11 C-40.20152344 10.29617187 -39.71554687 9.59234375 -39.21484375 8.8671875 C-30.05916775 -2.86419877 -13.58897485 -6.11816019 0 0 Z " fill="#FEFEFE" transform="translate(552.6875,113)"/>
<path d="M0 0 C12.87 0 25.74 0 39 0 C39 4.62 39 9.24 39 14 C31.74 14 24.48 14 17 14 C17 17.3 17 20.6 17 24 C23.27 24 29.54 24 36 24 C36 28.29 36 32.58 36 37 C29.73 37 23.46 37 17 37 C17 40.3 17 43.6 17 47 C24.26 47 31.52 47 39 47 C39 51.62 39 56.24 39 61 C26.13 61 13.26 61 0 61 C0 40.87 0 20.74 0 0 Z " fill="#FEFEFE" transform="translate(463,112)"/>
<path d="M0 0 C16.17 0 32.34 0 49 0 C49 4.29 49 8.58 49 13 C43.72 13 38.44 13 33 13 C33 28.84 33 44.68 33 61 C27.39 61 21.78 61 16 61 C16 45.16 16 29.32 16 13 C10.72 13 5.44 13 0 13 C0 8.71 0 4.42 0 0 Z " fill="#FEFEFE" transform="translate(407,112)"/>
<path d="M0 0 C3.12325867 1.756833 4.49010195 3.18879855 6.375 6.1875 C7.2851718 10.28327309 7.03724944 13.93927878 6 18 C4.17879704 20.81992717 2.99309044 22.50345478 0 24 C-4.09157355 24.51512617 -8.23589546 24.94367269 -11.95703125 22.953125 C-14.85592636 20.55501226 -16.79811835 18.60351712 -17.2734375 14.828125 C-17.58137554 7.01123631 -17.58137554 7.01123631 -14.625 3.4375 C-10.1025228 -0.76194311 -5.9866938 -0.67880623 0 0 Z M-11 5 C-13.45618439 8.68427659 -13.69019715 11.72077768 -13 16 C-10.96260881 19.05608679 -9.52656037 19.8207454 -6.0625 21 C-2.91911765 21.24019608 -2.91911765 21.24019608 -0.1875 19.5 C2.64698901 16.26058399 3 14.27666525 3 10 C1.41161066 6.42612398 0.28365642 5.18910428 -3 3 C-6.78149076 3 -7.964349 3.07742103 -11 5 Z " fill="#FEFEFE" transform="translate(477,183)"/>
<path d="M0 0 C3.96 0 7.92 0 12 0 C15.5747073 3.5747073 15.91563891 5.02269566 16 10 C14.0625 13.4375 14.0625 13.4375 12 16 C13.32 18.64 14.64 21.28 16 24 C14.35 24 12.7 24 11 24 C7 17.25 7 17.25 7 15 C6.01 15 5.02 15 4 15 C4 17.97 4 20.94 4 24 C2.68 24 1.36 24 0 24 C0 16.08 0 8.16 0 0 Z M4 3 C4 5.97 4 8.94 4 12 C8.47883696 11.55296014 8.47883696 11.55296014 12 9 C11.67958603 6.39719432 11.67958603 6.39719432 11 4 C8.69 3.67 6.38 3.34 4 3 Z " fill="#FEFEFE" transform="translate(683,183)"/>
<path d="M0 0 C3.96 0 7.92 0 12 0 C15.33169751 3.33169751 15.81657498 4.41437441 16 9 C14.6875 11.875 14.6875 11.875 13 14 C12.34 14 11.68 14 11 14 C12.65 17.3 14.3 20.6 16 24 C14.35 24 12.7 24 11 24 C9.48828125 22.28515625 9.48828125 22.28515625 8.3125 20.0625 C6.75983373 16.92600554 6.75983373 16.92600554 4 15 C4 17.97 4 20.94 4 24 C2.68 24 1.36 24 0 24 C0 16.08 0 8.16 0 0 Z M4 3 C4 5.97 4 8.94 4 12 C7.81813447 11.72459296 7.81813447 11.72459296 11 10 C11.04080783 8.00041636 11.04254356 5.99954746 11 4 C8.69 3.67 6.38 3.34 4 3 Z " fill="#FEFEFE" transform="translate(527,183)"/>
<path d="M0 0 C1.98 0 3.96 0 6 0 C8.64 7.92 11.28 15.84 14 24 C12.35 24 10.7 24 9 24 C8.505 21.525 8.505 21.525 8 19 C4.7 19 1.4 19 -2 19 C-2.33 20.65 -2.66 22.3 -3 24 C-4.65 24 -6.3 24 -8 24 C-5.36 16.08 -2.72 8.16 0 0 Z M2 7 C1.34 9.97 0.68 12.94 0 16 C1.98 16 3.96 16 6 16 C5.34 13.03 4.68 10.06 4 7 C3.34 7 2.68 7 2 7 Z " fill="#FEFEFE" transform="translate(341,183)"/>
<path d="M0 0 C1.32 0 2.64 0 4 0 C4 3.3 4 6.6 4 10 C7.63 10 11.26 10 15 10 C15 6.7 15 3.4 15 0 C16.32 0 17.64 0 19 0 C19 7.92 19 15.84 19 24 C17.68 24 16.36 24 15 24 C15 20.37 15 16.74 15 13 C11.37 13 7.74 13 4 13 C4 16.63 4 20.26 4 24 C2.68 24 1.36 24 0 24 C0 16.08 0 8.16 0 0 Z " fill="#FEFEFE" transform="translate(304,183)"/>
<path d="M0 0 C0.86625 -0.00773438 1.7325 -0.01546875 2.625 -0.0234375 C5 0.375 5 0.375 6.8125 1.6484375 C8 3.375 8 3.375 8 7.375 C6.68 7.375 5.36 7.375 4 7.375 C3.505 6.859375 3.01 6.34375 2.5 5.8125 C2.005 5.338125 1.51 4.86375 1 4.375 C-1.16299211 4.60257731 -1.16299211 4.60257731 -3 5.375 C-3 6.365 -3 7.355 -3 8.375 C-2.30132812 8.62894531 -1.60265625 8.88289062 -0.8828125 9.14453125 C0.48230469 9.66080078 0.48230469 9.66080078 1.875 10.1875 C2.77992188 10.52394531 3.68484375 10.86039063 4.6171875 11.20703125 C7 12.375 7 12.375 9 15.375 C8.80911038 18.4292339 8.61125872 20.57623861 6.7265625 23.0390625 C3.97745661 25.16619874 1.52252254 24.7843982 -1.8359375 24.6640625 C-4.68504125 24.28349629 -6.16694609 23.60654389 -8 21.375 C-8 20.055 -8 18.735 -8 17.375 C-6.68 17.375 -5.36 17.375 -4 17.375 C-3.525625 17.87 -3.05125 18.365 -2.5625 18.875 C-1.03621202 20.660826 -1.03621202 20.660826 1.6875 20.5625 C2.450625 20.500625 3.21375 20.43875 4 20.375 C4 18.725 4 17.075 4 15.375 C3.30132812 15.18164062 2.60265625 14.98828125 1.8828125 14.7890625 C0.97273438 14.52867187 0.06265625 14.26828125 -0.875 14 C-1.77992188 13.74476563 -2.68484375 13.48953125 -3.6171875 13.2265625 C-6 12.375 -6 12.375 -8 10.375 C-8.56416275 4.1692097 -8.56416275 4.1692097 -6.79296875 1.67578125 C-4.42781256 -0.04011638 -2.90050638 -0.02589738 0 0 Z " fill="#FEFEFE" transform="translate(284,182.625)"/>
<path d="M0 0 C1.32 0 2.64 0 4 0 C4.33 6.6 4.66 13.2 5 20 C8.465 19.505 8.465 19.505 12 19 C13.6498007 15.70039859 13.38258361 12.00872116 13.5625 8.375 C13.60568359 7.57320312 13.64886719 6.77140625 13.69335938 5.9453125 C13.79951457 3.9637489 13.90026855 1.98189729 14 0 C15.32 0 16.64 0 18 0 C18.08120751 2.89640118 18.14059421 5.79050912 18.1875 8.6875 C18.21263672 9.50412109 18.23777344 10.32074219 18.26367188 11.16210938 C18.32213351 15.97545043 18.08670459 19.05803722 15 23 C13.35034831 24.64965169 11.4523645 24.24949498 9.1875 24.3125 C7.87845703 24.36857422 7.87845703 24.36857422 6.54296875 24.42578125 C4 24 4 24 1.69140625 22.62109375 C-0.956991 18.51699546 -0.42361343 14.51769199 -0.25 9.75 C-0.23195313 8.81414062 -0.21390625 7.87828125 -0.1953125 6.9140625 C-0.14825673 4.60832985 -0.08253713 2.30469055 0 0 Z " fill="#FEFEFE" transform="translate(595,183)"/>
<path d="M0 0 C1.32 0 2.64 0 4 0 C4.05607422 1.78857422 4.05607422 1.78857422 4.11328125 3.61328125 C4.17894032 5.179719 4.24538768 6.74612384 4.3125 8.3125 C4.33505859 9.09818359 4.35761719 9.88386719 4.38085938 10.69335938 C4.41630859 11.45068359 4.45175781 12.20800781 4.48828125 12.98828125 C4.51446533 13.68477783 4.54064941 14.38127441 4.56762695 15.09887695 C5.14060411 17.61822937 5.88836843 18.51841235 8 20 C9.65 20 11.3 20 13 20 C13.33 13.4 13.66 6.8 14 0 C15.32 0 16.64 0 18 0 C18.11638036 3.24969769 18.18730581 6.4988583 18.25 9.75 C18.28351562 10.67039063 18.31703125 11.59078125 18.3515625 12.5390625 C18.44986823 19.322158 18.44986823 19.322158 16.265625 22.61328125 C12.54744902 24.88906138 9.21869472 24.6514161 5 24 C1.71068486 22.27310955 1.1859733 21.5579199 0 18 C-0.08021999 16.59175107 -0.10765977 15.18002769 -0.09765625 13.76953125 C-0.09282227 12.56586914 -0.09282227 12.56586914 -0.08789062 11.33789062 C-0.07951172 10.50451172 -0.07113281 9.67113281 -0.0625 8.8125 C-0.05798828 7.96751953 -0.05347656 7.12253906 -0.04882812 6.25195312 C-0.03705403 4.16793845 -0.0191189 2.08396023 0 0 Z " fill="#FEFEFE" transform="translate(651,183)"/>
<path d="M0 0 C1.32 0 2.64 0 4 0 C4.04898437 1.27617187 4.09796875 2.55234375 4.1484375 3.8671875 C4.22346191 5.53648072 4.29900988 7.20575046 4.375 8.875 C4.4059375 9.71675781 4.436875 10.55851563 4.46875 11.42578125 C4.50742187 12.23144531 4.54609375 13.03710938 4.5859375 13.8671875 C4.6173584 14.61081543 4.6487793 15.35444336 4.68115234 16.12060547 C4.85419551 18.24010974 4.85419551 18.24010974 7 20 C10.30683466 19.71016731 10.30683466 19.71016731 13 18 C13.15582303 16.65984779 13.25044142 15.31241097 13.31640625 13.96484375 C13.35830078 13.15595703 13.40019531 12.34707031 13.44335938 11.51367188 C13.50233398 10.2384668 13.50233398 10.2384668 13.5625 8.9375 C13.60568359 8.08349609 13.64886719 7.22949219 13.69335938 6.34960938 C13.79976702 4.23327963 13.90041731 2.11666187 14 0 C15.32 0 16.64 0 18 0 C18.10822792 3.06345144 18.18741479 6.1230601 18.25 9.1875 C18.30027344 10.48397461 18.30027344 10.48397461 18.3515625 11.80664062 C18.41497055 15.94401573 18.33549351 18.39441882 16.296875 22.07421875 C13.63395694 24.30690345 12.43846622 24.67741564 9 24.625 C7.7315625 24.64433594 7.7315625 24.64433594 6.4375 24.6640625 C4 24 4 24 1.703125 22.07421875 C-0.7039583 17.72932298 -0.43903805 14.06250056 -0.25 9.1875 C-0.23195313 8.30384766 -0.21390625 7.42019531 -0.1953125 6.50976562 C-0.14838513 4.33937457 -0.07664731 2.16954481 0 0 Z " fill="#FEFEFE" transform="translate(495,183)"/>
<path d="M0 0 C3.96 0 7.92 0 12 0 C16 4 16 4 16.5 7 C16 10 16 10 14.5 12.375 C10.86748926 14.73613198 8.28156703 14.2854378 4 14 C4 17.3 4 20.6 4 24 C2.68 24 1.36 24 0 24 C0 16.08 0 8.16 0 0 Z M4 3 C4 5.64 4 8.28 4 11 C7.465 10.505 7.465 10.505 11 10 C11.77242269 8.16299211 11.77242269 8.16299211 12 6 C10.96040481 4.12640605 10.96040481 4.12640605 9 3 C6.37429296 2.74930087 6.37429296 2.74930087 4 3 Z " fill="#FEFEFE" transform="translate(366,183)"/>
<path d="M0 0 C4.29 0 8.58 0 13 0 C13 0.99 13 1.98 13 3 C10.03 3 7.06 3 4 3 C4 5.31 4 7.62 4 10 C6.64 10 9.28 10 12 10 C12 10.99 12 11.98 12 13 C9.36 13 6.72 13 4 13 C4 15.64 4 18.28 4 21 C6.97 21 9.94 21 13 21 C13 21.99 13 22.98 13 24 C8.71 24 4.42 24 0 24 C0 16.08 0 8.16 0 0 Z " fill="#FEFEFE" transform="translate(711,183)"/>
<path d="M0 0 C4.29 0 8.58 0 13 0 C13 0.99 13 1.98 13 3 C10.03 3 7.06 3 4 3 C4 5.31 4 7.62 4 10 C6.64 10 9.28 10 12 10 C12 10.99 12 11.98 12 13 C9.36 13 6.72 13 4 13 C4 15.64 4 18.28 4 21 C6.97 21 9.94 21 13 21 C13 21.99 13 22.98 13 24 C8.71 24 4.42 24 0 24 C0 16.08 0 8.16 0 0 Z " fill="#FEFEFE" transform="translate(393,183)"/>
<path d="M0 0 C2.25 0 2.25 0 5 1 C6.70175879 3.57166744 7.77644187 6.14503103 9 9 C10.65 6.03 12.3 3.06 14 0 C15.65 0 17.3 0 19 0 C18.50628906 0.97839844 18.01257813 1.95679688 17.50390625 2.96484375 C14.03023048 10.01380682 11.14045244 15.99421083 11 24 C9.68 24 8.36 24 7 24 C6.99742187 23.41734375 6.99484375 22.8346875 6.9921875 22.234375 C6.66843928 15.3709128 4.56206235 10.46625972 1.27734375 4.46875 C0 2 0 2 0 0 Z " fill="#FEFEFE" transform="translate(432,183)"/>
<path d="M0 0 C4.62 0 9.24 0 14 0 C14 0.99 14 1.98 14 3 C10.7 3 7.4 3 4 3 C4 5.64 4 8.28 4 11 C6.64 11 9.28 11 12 11 C12 11.99 12 12.98 12 14 C9.36 14 6.72 14 4 14 C4 17.3 4 20.6 4 24 C2.68 24 1.36 24 0 24 C0 16.08 0 8.16 0 0 Z " fill="#FEFEFE" transform="translate(571,183)"/>
<path d="M0 0 C5.61 0 11.22 0 17 0 C17 0.99 17 1.98 17 3 C14.69 3 12.38 3 10 3 C10 9.93 10 16.86 10 24 C8.68 24 7.36 24 6 24 C6 17.07 6 10.14 6 3 C4.02 3 2.04 3 0 3 C0 2.01 0 1.02 0 0 Z " fill="#FEFEFE" transform="translate(624,183)"/>
</svg>
