<svg id="SvgjsSvg1001" width="288" height="288" xmlns="http://www.w3.org/2000/svg" version="1.1" xmlns:xlink="http://www.w3.org/1999/xlink" xmlns:svgjs="http://svgjs.com/svgjs"><defs id="SvgjsDefs1002"></defs><g id="SvgjsG1008" transform="matrix(1,0,0,1,0,0)"><svg xmlns="http://www.w3.org/2000/svg" viewBox="0 0 900 900" width="288" height="288"><path fill="#00c6ff" d="M0 0 C1.85117432 -0.01052147 1.85117432 -0.01052147 3.73974609 -0.02125549 C7.7041184 -0.03867997 11.66841005 -0.04568957 15.6328125 -0.046875 C16.30750832 -0.04731686 16.98220413 -0.04775871 17.67734528 -0.04821396 C37.53296598 -0.05503872 57.08925057 0.17944182 76.7578125 3.203125 C78.58070801 3.46851074 78.58070801 3.46851074 80.44042969 3.73925781 C108.28467194 7.83837204 135.04847956 14.36522909 161.7578125 23.203125 C163.33248291 23.71866943 163.33248291 23.71866943 164.93896484 24.24462891 C213.42399245 40.29243548 258.48765637 66.02561995 298.20996094 97.95947266 C299.67165518 99.13390018 301.14030779 100.29965209 302.609375 101.46484375 C308.86645514 106.4867366 314.77146342 111.81812039 320.62890625 117.29296875 C323.34216283 119.82792797 326.10331517 122.30328109 328.8828125 124.765625 C336.3626036 131.4791936 343.50792722 138.54745388 350.03125 146.19921875 C351.97522296 148.45545886 353.99104768 150.63676393 356.0078125 152.828125 C361.04864032 158.4224221 365.66870962 164.30117579 370.26025391 170.26416016 C371.80606654 172.26560194 373.36524692 174.25611557 374.92578125 176.24609375 C422.84764058 237.68621966 452.02722655 311.42464858 463.4564209 388.18963623 C463.73229153 390.03262856 464.01845523 391.87407256 464.30566406 393.71533203 C469.91364883 431.0814572 469.57768823 472.89263827 463.7578125 510.203125 C463.55120234 511.58341306 463.34517736 512.96378881 463.13964844 514.34423828 C449.44659914 605.30249225 409.78261754 688.30118108 347.7578125 756.203125 C346.88253906 757.17121094 346.00726562 758.13929688 345.10546875 759.13671875 C337.39409871 767.64412752 329.53679179 775.97243353 320.796875 783.44140625 C318.5308902 785.39918239 316.33637756 787.42541448 314.1328125 789.453125 C308.5385154 794.49395282 302.65976171 799.11402212 296.69677734 803.70556641 C294.69533556 805.25137904 292.70482193 806.81055942 290.71484375 808.37109375 C228.66007301 856.77236166 154.26914072 885.79950985 76.7578125 897.203125 C74.95473633 897.47431152 74.95473633 897.47431152 73.11523438 897.75097656 C35.38148613 903.14610884 -5.53644012 902.7311249 -43.2421875 897.203125 C-44.43875977 897.03683594 -45.63533203 896.87054687 -46.86816406 896.69921875 C-137.77730587 883.83134547 -221.59658779 842.99377326 -289.2421875 781.203125 C-290.69431641 779.89021484 -290.69431641 779.89021484 -292.17578125 778.55078125 C-300.68319002 770.83941121 -309.01149603 762.98210429 -316.48046875 754.2421875 C-318.43824489 751.9762027 -320.46447698 749.78169006 -322.4921875 747.578125 C-327.53301532 741.9838279 -332.15308462 736.10507421 -336.74462891 730.14208984 C-338.29044154 728.14064806 -339.84962192 726.15013443 -341.41015625 724.16015625 C-389.3226866 662.73199093 -418.51347244 588.96903543 -429.9407959 512.21661377 C-430.21666653 510.37362144 -430.50283023 508.53217744 -430.79003906 506.69091797 C-436.39802383 469.3247928 -436.06206323 427.51361173 -430.2421875 390.203125 C-430.03557734 388.82283694 -429.82955236 387.44246119 -429.62402344 386.06201172 C-417.65887454 306.58161048 -385.94469378 231.51640555 -335.48583984 168.75097656 C-334.31141232 167.28928232 -333.14566041 165.82062971 -331.98046875 164.3515625 C-326.9585759 158.09448236 -321.62719211 152.18947408 -316.15234375 146.33203125 C-313.61738453 143.61877467 -311.14203141 140.85762233 -308.6796875 138.078125 C-301.9661189 130.5983339 -294.89785862 123.45301028 -287.24609375 116.9296875 C-284.98985364 114.98571454 -282.80854857 112.96988982 -280.6171875 110.953125 C-275.0228904 105.91229718 -269.14413671 101.29222788 -263.18115234 96.70068359 C-261.17971056 95.15487096 -259.18919693 93.59569058 -257.19921875 92.03515625 C-190.66790642 40.14229074 -108.99017772 9.3543906 -25.2421875 1.203125 C-24.35181793 1.11579605 -23.46144836 1.0284671 -22.5440979 0.93849182 C-15.01916507 0.25351463 -7.55374233 0.02874136 0 0 Z " transform="translate(433.242 -.203)" class="colorFBBC05 svgShape"></path><path fill="#fdfdfc" d="M0 0 C1.58991478 0.72623646 3.18143837 1.4489594 4.77441406 2.16845703 C8.14523456 3.69557735 11.50752806 5.23960015 14.86474609 6.79638672 C20.07813463 9.20601448 25.32422003 11.53683385 30.58203125 13.84765625 C31.46091507 14.23393188 32.33979889 14.62020752 33.24531555 15.01818848 C35.03331075 15.80362394 36.8214022 16.58884032 38.60958862 17.37384033 C43.15790088 19.37405217 47.69962565 21.38911598 52.2421875 23.40234375 C61.78848056 27.62995355 71.34769139 31.8276714 80.91055298 36.01763916 C110.44690647 48.96108472 139.9186693 62.04855385 169.3125 75.3125 C186.87338473 83.23666818 204.50473861 90.99402406 222.1530304 98.72114563 C232.31753016 103.17281017 242.4734433 107.6439047 252.625 112.125 C253.53147278 112.52513306 254.43794556 112.92526611 255.37188721 113.33752441 C269.32485013 119.50056845 283.2346993 125.7475498 297.0625 132.1875 C295.81148095 137.1915762 294.43023149 139.42185476 290.0625 142.1875 C287.22315937 143.52625646 284.30681304 144.6313259 281.375 145.75 C270.26965448 150.14299782 259.4241538 155.04242455 248.5625 160 C231.19857748 167.91720436 213.74503425 175.60611004 196.22070312 183.16137695 C194.41266413 183.94199706 192.60472007 184.72283713 190.796875 185.50390625 C189.92353516 185.88061966 189.05019531 186.25733307 188.15039062 186.64546204 C183.38239037 188.71220532 178.64096228 190.82746601 173.91992188 192.99951172 C172.91157288 193.46316635 171.90322388 193.92682098 170.86431885 194.40452576 C168.920877 195.30172368 166.9798009 196.20406877 165.04144287 197.11219788 C164.17086243 197.51466232 163.30028198 197.91712677 162.40332031 198.33178711 C161.6357843 198.69066513 160.86824829 199.04954315 160.07745361 199.41929626 C158.0625 200.1875 158.0625 200.1875 155.0625 200.1875 C155.06526538 201.00939489 155.06526538 201.00939489 155.06808662 201.84789371 C155.1124645 215.24718852 155.14532438 228.64647027 155.16612434 242.0458231 C155.17652402 248.52593809 155.19061298 255.0059997 155.21337891 261.48608398 C155.23524403 267.74956214 155.24709726 274.01298921 155.25225449 280.27650261 C155.25592584 282.65607443 155.26309447 285.03564372 155.27396011 287.41519356 C155.47408119 333.0928162 155.47408119 333.0928162 139.76171875 349.60546875 C108.54990812 379.4300878 64.00141273 394.76812306 24.57745361 410.20013428 C21.62083337 411.36089743 18.66914319 412.53370169 15.7184906 413.70953369 C12.8364107 414.8562887 9.9493636 415.99035229 7.0625 417.125 C6.10545166 417.50736816 5.14840332 417.88973633 4.16235352 418.28369141 C-5.45601853 422.01176931 -15.37753096 424.73356057 -25.75 424.625 C-26.41580078 424.64498047 -27.08160156 424.66496094 -27.76757812 424.68554688 C-43.01641977 424.67154427 -58.21604467 417.77952328 -72.25 412.5 C-74.26214713 411.74918841 -76.27435531 410.99854039 -78.28662109 410.24804688 C-92.26017269 405.0191671 -106.1793702 399.65160861 -120.0625 394.1875 C-121.3569957 393.67988632 -121.3569957 393.67988632 -122.67764282 393.16201782 C-132.11435689 389.45349721 -141.45952852 385.58478611 -150.7109375 381.43359375 C-151.93262131 380.8856012 -151.93262131 380.8856012 -153.1789856 380.32653809 C-175.93818544 369.9919537 -192.85883382 355.98494275 -201.9375 332.1875 C-204.81471218 322.11893995 -204.19741569 311.54725418 -204.125 301.1875 C-204.11804201 299.15560044 -204.11154702 297.12369926 -204.10546875 295.09179688 C-203.97323068 262.78922788 -203.42325503 230.48630446 -202.9375 198.1875 C-204.03777527 198.11286781 -204.03777527 198.11286781 -205.16027832 198.03672791 C-214.83864489 197.28773043 -214.83864489 197.28773043 -219.15625 195.25390625 C-220.02765625 194.85107422 -220.8990625 194.44824219 -221.796875 194.03320312 C-222.66828125 193.60974609 -223.5396875 193.18628906 -224.4375 192.75 C-225.27796875 192.36134766 -226.1184375 191.97269531 -226.984375 191.57226562 C-236.47753596 187.1102024 -245.64929849 182.07602711 -254.9375 177.1875 C-254.9375 203.9175 -254.9375 230.6475 -254.9375 258.1875 C-250.9775 258.1875 -247.0175 258.1875 -242.9375 258.1875 C-240.67377244 261.58309134 -240.55004155 263.25149064 -240.22314453 267.26806641 C-240.11595093 268.53298416 -240.00875732 269.79790192 -239.89831543 271.10115051 C-239.78883482 272.49710971 -239.67950504 273.89308074 -239.5703125 275.2890625 C-239.45018542 276.74267293 -239.32927897 278.19621915 -239.2076416 279.64970398 C-238.88280326 283.5581329 -238.56869194 287.46735199 -238.25720978 291.37686539 C-237.93182035 295.4471785 -237.59913935 299.51689564 -237.26708984 303.58666992 C-236.86701933 308.49426025 -236.4678104 313.40191218 -236.07290649 318.30992126 C-235.31953506 327.6531984 -234.5187843 336.9902622 -233.65625 346.32421875 C-231.30614442 372.08802251 -230.57654021 397.28863503 -230.9375 423.1875 C-256.3475 423.1875 -281.7575 423.1875 -307.9375 423.1875 C-307.9375 407.43780019 -307.9375 407.43780019 -307.125 399.625 C-306.0956175 388.85073398 -305.38170677 378.0655792 -304.68991089 367.26538086 C-302.66707093 335.81270614 -299.64168486 304.54650088 -296.0234375 273.23828125 C-295.92875183 272.41165985 -295.83406616 271.58503845 -295.73651123 270.73336792 C-295.6460553 269.95808746 -295.55559937 269.18280701 -295.46240234 268.3840332 C-295.38484711 267.71523636 -295.30729187 267.04643951 -295.22738647 266.3573761 C-294.8623029 263.62463005 -294.39075212 260.90701273 -293.9375 258.1875 C-289.6475 258.1875 -285.3575 258.1875 -280.9375 258.1875 C-281.08695068 256.55449951 -281.23640137 254.92149902 -281.39038086 253.23901367 C-282.05100514 245.28936833 -282.37218204 237.33193118 -282.69140625 229.36328125 C-282.75706992 227.76530783 -282.82290472 226.16734144 -282.88890076 224.56938171 C-283.02576243 221.24219973 -283.16088646 217.91495332 -283.29467773 214.58764648 C-283.46538537 210.34463374 -283.64000121 206.10179278 -283.81585789 201.85899067 C-283.95194509 198.56719053 -284.08620055 195.27531764 -284.2198925 191.98341942 C-284.28357825 190.41945537 -284.34776265 188.85551154 -284.41247749 187.29158974 C-284.73011842 179.58778887 -285.02368649 171.89929407 -284.9375 164.1875 C-285.5776001 164.10064941 -286.2177002 164.01379883 -286.87719727 163.92431641 C-291.11452573 162.90411239 -294.92564995 161.16108487 -298.90234375 159.3984375 C-299.77210342 159.01692535 -300.6418631 158.63541321 -301.53797913 158.24234009 C-303.38062914 157.43268944 -305.22219443 156.62056625 -307.06274414 155.80615234 C-309.83137154 154.58179364 -312.60381372 153.36644223 -315.37695312 152.15234375 C-343.19924733 139.92575267 -343.19924733 139.92575267 -346.9375 136.1875 C-346.9375 135.1975 -346.9375 134.2075 -346.9375 133.1875 C-332.67596632 122.17388409 -301.01538532 103.82556745 -282.75 104.125 C-281.491875 104.145625 -280.23375 104.16625 -278.9375 104.1875 C-279.040625 102.90875 -279.14375 101.63 -279.25 100.3125 C-279.25 93.61146696 -276.53765723 87.81649727 -271.84643555 83.07324219 C-268.13401566 80.66663445 -265.08747731 80.67069861 -260.8125 80.75390625 C-259.20182203 80.74428782 -257.59114497 80.73451714 -255.98046875 80.72460938 C-253.47074909 80.7331392 -250.96129304 80.74978735 -248.45166016 80.7722168 C-237.5683121 80.83801305 -228.8972326 80.11368191 -218.9375 75.1875 C-218.08349609 74.77653076 -217.22949219 74.36556152 -216.34960938 73.94213867 C-213.77487886 72.66512282 -211.23204285 71.33606577 -208.6875 70 C-197.88379779 64.47443571 -186.87170527 59.53107206 -175.75 54.6875 C-174.88256165 54.30968384 -174.01512329 53.93186768 -173.12139893 53.54260254 C-169.51143105 51.97107914 -165.90113494 50.4003143 -162.29022217 48.83096313 C-152.02120525 44.36342659 -141.79171536 39.80774679 -131.5625 35.25 C-127.79842077 33.57367093 -124.03409223 31.89790316 -120.26953125 30.22265625 C-119.33718658 29.80774933 -118.40484192 29.39284241 -117.44424438 28.96536255 C-110.78505149 26.00402087 -104.11896127 23.05858989 -97.44921875 20.12109375 C-96.51232208 19.70834702 -95.57542542 19.29560028 -94.61013794 18.87034607 C-86.73795931 15.40232578 -86.73795931 15.40232578 -83.52905273 13.98959351 C-74.87244662 10.17644725 -66.22328865 6.35302894 -57.64453125 2.3671875 C-57.02409439 2.07894104 -56.40365753 1.79069458 -55.76441956 1.49371338 C-52.98150618 0.19769524 -50.20361549 -1.10805897 -47.4309082 -2.42578125 C-46.49722412 -2.86535156 -45.56354004 -3.30492187 -44.6015625 -3.7578125 C-43.81217285 -4.13437988 -43.0227832 -4.51094727 -42.20947266 -4.89892578 C-27.75834221 -10.70981447 -13.23480007 -6.30865326 0 0 Z " transform="translate(468.938 219.813)" class="colorFDFDFC svgShape"></path><path fill="#66ccff" d="M0 0 C5.08397616 0.56751742 9.58088251 1.71609933 14.359375 3.5703125 C15.04916443 3.83393585 15.73895386 4.0975592 16.449646 4.36917114 C23.75667831 7.21271695 30.8611891 10.4762216 37.95877075 13.80175781 C41.99126829 15.69063317 46.03288635 17.55980734 50.07421875 19.4296875 C50.90130844 19.81276062 51.72839813 20.19583374 52.58055115 20.59051514 C58.08105371 23.13184895 63.60183598 25.62244136 69.14453125 28.0703125 C69.88420135 28.39703949 70.62387146 28.72376648 71.38595581 29.06039429 C74.34953143 30.36757182 77.3140443 31.6725249 80.28149414 32.97088623 C88.85280233 36.72289511 97.32400005 40.6078989 105.69921875 44.78125 C107.31419166 45.57718842 108.92934305 46.3727648 110.54467773 47.16796875 C113.59020583 48.66812203 116.6117965 50.20614668 119.62524414 51.76953125 C130.31347977 57.15056877 139.43859409 59.2423322 151.36132812 56.11962891 C154.70741222 54.92365332 157.89667117 53.5466345 161.125 52.0625 C162.34918996 51.52546663 163.57449288 50.99096457 164.80078125 50.45874023 C168.15886885 48.99179375 171.49902199 47.48754998 174.83703613 45.97558594 C178.65072361 44.25545555 182.4790233 42.56827784 186.3046875 40.875 C195.14482795 36.95361718 203.96213757 32.9824462 212.77630615 29.00311279 C223.17397887 24.3127016 233.58647951 19.65508534 244 15 C245.75594482 14.21375244 245.75594482 14.21375244 247.54736328 13.41162109 C250.98763394 11.87341178 254.43082719 10.34194881 257.875 8.8125 C259.40894409 8.12534912 259.40894409 8.12534912 260.97387695 7.42431641 C268.47450192 4.1065984 274.69975886 1.88999384 283 2 C284.61072296 14.42206783 285.34986587 26.63888901 285.40625 39.16015625 C285.41473213 40.45900159 285.41473213 40.45900159 285.42338562 41.78408623 C285.45299722 46.34622205 285.47170159 50.90823696 285.48046875 55.47045898 C285.49152917 60.15086178 285.53987674 64.83012767 285.59641266 69.51017094 C285.63374612 73.14689934 285.64407975 76.78335186 285.6471405 80.42025566 C285.65315297 82.14614677 285.6690717 83.8720354 285.69551086 85.59773445 C285.92940764 102.00200343 285.92940764 102.00200343 280.68753052 108.36997986 C278.27203078 110.70316031 275.87795839 112.46177062 272.94921875 114.109375 C271.81145996 114.76099609 270.67370117 115.41261719 269.50146484 116.08398438 C268.34598145 116.71626953 267.19049805 117.34855469 266 118 C264.92572754 118.60650391 263.85145508 119.21300781 262.74462891 119.83789062 C237.08627965 134.18015035 210.63568848 146.02921906 183 156 C182.17306641 156.3005127 181.34613281 156.60102539 180.49414062 156.91064453 C176.36249405 158.39993733 172.21545128 159.76811103 168 161 C166.92363281 161.31582031 165.84726562 161.63164063 164.73828125 161.95703125 C114.02710724 174.85569223 59.16365698 143.14778321 16.9765625 118.12109375 C1.5641768 108.69253041 1.5641768 108.69253041 -1 101 C-1.09490308 98.76657323 -1.12794447 96.53036358 -1.12939453 94.29492188 C-1.13114685 93.61608948 -1.13289917 92.93725708 -1.13470459 92.237854 C-1.13912017 89.98146026 -1.13617833 87.72514464 -1.1328125 85.46875 C-1.13348748 83.87862127 -1.13445912 82.28849264 -1.13571167 80.69836426 C-1.13718975 77.34577463 -1.13503739 73.99321154 -1.13037109 70.640625 C-1.12478326 66.42859699 -1.12796869 62.21663371 -1.13382339 58.00460815 C-1.15648612 38.64497082 -0.93014367 19.34117286 0 0 Z " transform="translate(302 435)" class="colorFBBC06 svgShape"></path></svg></g></svg>